<svg width="881" height="509" viewBox="0 0 881 509" fill="none" xmlns="http://www.w3.org/2000/svg">
<rect width="881" height="509" fill="#F8FAFC"/>
<path d="M655.073 247.784C597.036 290.562 512.915 313.386 440.488 313.386C338.934 313.386 247.509 275.824 178.343 213.353C172.908 208.44 177.777 201.746 184.298 205.571C258.942 249.001 351.237 275.129 446.574 275.129C510.872 275.129 581.603 261.826 646.639 234.22C656.464 230.047 664.681 240.654 655.073 247.784Z" fill="#E3E8EF"/>
<path d="M679.201 220.178C671.81 210.701 630.163 215.701 611.469 217.918C605.774 218.613 604.905 213.657 610.035 210.092C643.205 186.747 697.634 193.486 703.981 201.311C710.328 209.18 702.329 263.739 671.158 289.779C666.376 293.779 661.812 291.649 663.942 286.345C670.941 268.869 686.635 229.699 679.201 220.178Z" fill="#E3E8EF"/>
</svg>
