<svg width="320" height="73" viewBox="0 0 320 73" fill="none" xmlns="http://www.w3.org/2000/svg">
<path d="M289.006 33.184C254.007 58.9814 203.277 72.7453 159.6 72.7453C98.3575 72.7453 43.2235 50.0939 1.51252 12.4203C-1.76458 9.45779 1.17169 5.42041 5.10423 7.72748C50.1185 33.9181 105.777 49.6745 163.27 49.6745C202.045 49.6745 244.7 41.6521 283.92 25.0044C289.845 22.4876 294.8 28.8845 289.006 33.184Z" fill="#fff"/>
<path d="M303.557 16.5363C299.1 10.8211 273.984 13.836 262.711 15.1731C259.277 15.5925 258.752 12.6038 261.846 10.454C281.849 -3.62441 314.673 0.4392 318.5 5.15823C322.328 9.90349 317.504 42.8056 298.707 58.5095C295.823 60.9215 293.07 59.6369 294.355 56.4384C298.576 45.8992 308.04 22.2778 303.557 16.5363Z" fill="#fff"/>
</svg>
